<svg xmlns="http://www.w3.org/2000/svg" font-family="system-ui,-apple-system,Segoe UI,sans-serif" viewBox="0 0 709 314" width="709" height="314" role="img" aria-label="Set retrieval by rewriter configuration and embedder"><style>
  .val,.tick{font-variant-numeric:tabular-nums}
  @media (prefers-color-scheme: dark){
    .bg{fill:#1a1a19} .t,.val{fill:#ffffff} .st,.lab{fill:#c3c2b7} .tick{fill:#898781}
    .grid{stroke:#2c2c2a} .axis{stroke:#383835}
    .s1{fill:#3987e5} .s2{fill:#d95926} .ctx{fill:#5a5955}}
</style><rect class="bg" fill="#fcfcfb" width="709" height="314"/><text class="t" fill="#0b0b0b" font-size="15" font-weight="600" x="16" y="24">Set retrieval by rewriter configuration and embedder</text><text class="st" fill="#52514e" font-size="12" x="16" y="41">R-precision against tag pools (21 queries). Filters shrink the reachable pool, so unfiltered rows can score higher.</text><rect class="s1" fill="#2a78d6" x="223" y="46" width="10" height="10" rx="2"/><text class="lab" fill="#52514e" font-size="12" x="238" y="55">base embedder</text><rect class="s2" fill="#eb6834" x="341" y="46" width="10" height="10" rx="2"/><text class="lab" fill="#52514e" font-size="12" x="356" y="55">tuned embedder</text><line class="axis" stroke="#c3c2b7" stroke-width="1" x1="223.0" y1="78" x2="223.0" y2="288"/><text class="tick" fill="#898781" font-size="11" x="223.0" y="304" text-anchor="middle">0.00</text><line class="grid" stroke="#e1e0d9" stroke-width="1" x1="330.5" y1="78" x2="330.5" y2="288"/><text class="tick" fill="#898781" font-size="11" x="330.5" y="304" text-anchor="middle">0.25</text><line class="grid" stroke="#e1e0d9" stroke-width="1" x1="438.0" y1="78" x2="438.0" y2="288"/><text class="tick" fill="#898781" font-size="11" x="438.0" y="304" text-anchor="middle">0.50</text><line class="grid" stroke="#e1e0d9" stroke-width="1" x1="545.5" y1="78" x2="545.5" y2="288"/><text class="tick" fill="#898781" font-size="11" x="545.5" y="304" text-anchor="middle">0.75</text><line class="grid" stroke="#e1e0d9" stroke-width="1" x1="653.0" y1="78" x2="653.0" y2="288"/><text class="tick" fill="#898781" font-size="11" x="653.0" y="304" text-anchor="middle">1.00</text><text class="lab" fill="#52514e" font-size="12" x="215" y="103.0" text-anchor="end">Raw query, no rewriter, no filter</text><path class="s1" fill="#2a78d6" d="M223.0,84.0h86.6a4.0,4.0 0 0 1 4.0,4.0v6.0a4.0,4.0 0 0 1 -4.0,4.0h-86.6z"><title>Raw query, no rewriter, no filter — base: 0.211 (row 88)</title></path><text class="val" fill="#0b0b0b" font-size="11.5" x="318.6" y="95">0.21</text><path class="s2" fill="#eb6834" d="M223.0,100.0h253.3a4.0,4.0 0 0 1 4.0,4.0v6.0a4.0,4.0 0 0 1 -4.0,4.0h-253.3z"><title>Raw query, no rewriter, no filter — tuned (nomic-mtg-v1): 0.598 (row 95)</title></path><text class="val" fill="#0b0b0b" font-size="11.5" x="485.3" y="111">0.60</text><text class="lab" fill="#52514e" font-size="12" x="215" y="143.0" text-anchor="end">v1 filters + raw query</text><path class="s1" fill="#2a78d6" d="M223.0,124.0h75.4a4.0,4.0 0 0 1 4.0,4.0v6.0a4.0,4.0 0 0 1 -4.0,4.0h-75.4z"><title>v1 filters + raw query — base: 0.185 (row 89)</title></path><text class="val" fill="#0b0b0b" font-size="11.5" x="307.4" y="135">0.18</text><path class="s2" fill="#eb6834" d="M223.0,140.0h191.9a4.0,4.0 0 0 1 4.0,4.0v6.0a4.0,4.0 0 0 1 -4.0,4.0h-191.9z"><title>v1 filters + raw query — tuned (nomic-mtg-v1): 0.456 (row 96)</title></path><text class="val" fill="#0b0b0b" font-size="11.5" x="423.9" y="151">0.46</text><text class="lab" fill="#52514e" font-size="12" x="215" y="183.0" text-anchor="end">v1 hypothetical text + filters</text><path class="s1" fill="#2a78d6" d="M223.0,164.0h88.5a4.0,4.0 0 0 1 4.0,4.0v6.0a4.0,4.0 0 0 1 -4.0,4.0h-88.5z"><title>v1 hypothetical text + filters — base: 0.215 (row 90)</title></path><text class="val" fill="#0b0b0b" font-size="11.5" x="320.5" y="175">0.22</text><path class="s2" fill="#eb6834" d="M223.0,180.0h136.0a4.0,4.0 0 0 1 4.0,4.0v6.0a4.0,4.0 0 0 1 -4.0,4.0h-136.0z"><title>v1 hypothetical text + filters — tuned (nomic-mtg-v1): 0.326 (row 97)</title></path><text class="val" fill="#0b0b0b" font-size="11.5" x="368.0" y="191">0.33</text><text class="lab" fill="#52514e" font-size="12" x="215" y="223.0" text-anchor="end">v2 concepts + filters</text><path class="s1" fill="#2a78d6" d="M223.0,204.0h68.8a4.0,4.0 0 0 1 4.0,4.0v6.0a4.0,4.0 0 0 1 -4.0,4.0h-68.8z"><title>v2 concepts + filters — base: 0.169 (row 92)</title></path><text class="val" fill="#0b0b0b" font-size="11.5" x="300.8" y="215">0.17</text><path class="s2" fill="#eb6834" d="M223.0,220.0h215.4a4.0,4.0 0 0 1 4.0,4.0v6.0a4.0,4.0 0 0 1 -4.0,4.0h-215.4z"><title>v2 concepts + filters — tuned (nomic-mtg-v1): 0.510 (row 99)</title></path><text class="val" fill="#0b0b0b" font-size="11.5" x="447.4" y="231">0.51</text><text class="lab" fill="#52514e" font-size="12" x="215" y="263.0" text-anchor="end">v2 concepts + filters + keywords</text><path class="s1" fill="#2a78d6" d="M223.0,244.0h68.8a4.0,4.0 0 0 1 4.0,4.0v6.0a4.0,4.0 0 0 1 -4.0,4.0h-68.8z"><title>v2 concepts + filters + keywords — base: 0.169 (row 94)</title></path><text class="val" fill="#0b0b0b" font-size="11.5" x="300.8" y="255">0.17</text><path class="s2" fill="#eb6834" d="M223.0,260.0h215.4a4.0,4.0 0 0 1 4.0,4.0v6.0a4.0,4.0 0 0 1 -4.0,4.0h-215.4z"><title>v2 concepts + filters + keywords — tuned (nomic-mtg-v1): 0.510 (row 101)</title></path><text class="val" fill="#0b0b0b" font-size="11.5" x="447.4" y="271">0.51</text></svg>
