<svg xmlns="http://www.w3.org/2000/svg" font-family="system-ui,-apple-system,Segoe UI,sans-serif" viewBox="0 0 805 482" width="805" height="482" role="img" aria-label="Result parity with an expert&#x27;s Scryfall query"><style>
  .val,.tick{font-variant-numeric:tabular-nums}
  @media (prefers-color-scheme: dark){
    .bg{fill:#1a1a19} .t,.val{fill:#ffffff} .st,.lab{fill:#c3c2b7} .tick{fill:#898781}
    .grid{stroke:#2c2c2a} .axis{stroke:#383835}
    .s1{fill:#3987e5} .s2{fill:#d95926} .ctx{fill:#5a5955}}
</style><rect class="bg" fill="#fcfcfb" width="805" height="482"/><text class="t" fill="#0b0b0b" font-size="15" font-weight="600" x="16" y="24">Result parity with an expert&#x27;s Scryfall query</text><text class="st" fill="#52514e" font-size="12" x="16" y="41">R-precision of the cascade ranking against the expert result set (tags allowed); headline configuration highlighted</text><line class="axis" stroke="#c3c2b7" stroke-width="1" x1="319.0" y1="56" x2="319.0" y2="456"/><text class="tick" fill="#898781" font-size="11" x="319.0" y="472" text-anchor="middle">0.00</text><line class="grid" stroke="#e1e0d9" stroke-width="1" x1="426.5" y1="56" x2="426.5" y2="456"/><text class="tick" fill="#898781" font-size="11" x="426.5" y="472" text-anchor="middle">0.25</text><line class="grid" stroke="#e1e0d9" stroke-width="1" x1="534.0" y1="56" x2="534.0" y2="456"/><text class="tick" fill="#898781" font-size="11" x="534.0" y="472" text-anchor="middle">0.50</text><line class="grid" stroke="#e1e0d9" stroke-width="1" x1="641.5" y1="56" x2="641.5" y2="456"/><text class="tick" fill="#898781" font-size="11" x="641.5" y="472" text-anchor="middle">0.75</text><line class="grid" stroke="#e1e0d9" stroke-width="1" x1="749.0" y1="56" x2="749.0" y2="456"/><text class="tick" fill="#898781" font-size="11" x="749.0" y="472" text-anchor="middle">1.00</text><text class="lab" fill="#52514e" font-size="12" x="311" y="74.0" text-anchor="end">v2 concepts + filters + keywords · tuned</text><path class="s1" fill="#2a78d6" d="M319.0,62.0h239.1a4.0,4.0 0 0 1 4.0,4.0v8.0a4.0,4.0 0 0 1 -4.0,4.0h-239.1z"><title>v2 concepts + filters + keywords · tuned: 0.565 (row 101)</title></path><text class="val" fill="#0b0b0b" font-size="11.5" x="567.1" y="75">0.57</text><text class="lab" fill="#52514e" font-size="12" x="311" y="100.0" text-anchor="end">v2 query + concepts + filters + keywords · tuned</text><path class="ctx" fill="#b9b7ae" d="M319.0,88.0h238.1a4.0,4.0 0 0 1 4.0,4.0v8.0a4.0,4.0 0 0 1 -4.0,4.0h-238.1z"><title>v2 query + concepts + filters + keywords · tuned: 0.563 (row 84)</title></path><text class="val" fill="#0b0b0b" font-size="11.5" x="566.1" y="101">0.56</text><text class="lab" fill="#52514e" font-size="12" x="311" y="126.0" text-anchor="end">v2 concepts + filters · tuned</text><path class="ctx" fill="#b9b7ae" d="M319.0,114.0h220.8a4.0,4.0 0 0 1 4.0,4.0v8.0a4.0,4.0 0 0 1 -4.0,4.0h-220.8z"><title>v2 concepts + filters · tuned: 0.523 (row 99)</title></path><text class="val" fill="#0b0b0b" font-size="11.5" x="548.8" y="127">0.52</text><text class="lab" fill="#52514e" font-size="12" x="311" y="152.0" text-anchor="end">v1 filters + raw query · tuned</text><path class="ctx" fill="#b9b7ae" d="M319.0,140.0h210.3a4.0,4.0 0 0 1 4.0,4.0v8.0a4.0,4.0 0 0 1 -4.0,4.0h-210.3z"><title>v1 filters + raw query · tuned: 0.498 (row 96)</title></path><text class="val" fill="#0b0b0b" font-size="11.5" x="538.3" y="153">0.50</text><text class="lab" fill="#52514e" font-size="12" x="311" y="178.0" text-anchor="end">Raw query, no rewriter, no filter · tuned</text><path class="ctx" fill="#b9b7ae" d="M319.0,166.0h175.4a4.0,4.0 0 0 1 4.0,4.0v8.0a4.0,4.0 0 0 1 -4.0,4.0h-175.4z"><title>Raw query, no rewriter, no filter · tuned: 0.417 (row 95)</title></path><text class="val" fill="#0b0b0b" font-size="11.5" x="503.4" y="179">0.42</text><text class="lab" fill="#52514e" font-size="12" x="311" y="204.0" text-anchor="end">v1 hypothetical text + filters · tuned</text><path class="ctx" fill="#b9b7ae" d="M319.0,192.0h173.8a4.0,4.0 0 0 1 4.0,4.0v8.0a4.0,4.0 0 0 1 -4.0,4.0h-173.8z"><title>v1 hypothetical text + filters · tuned: 0.414 (row 97)</title></path><text class="val" fill="#0b0b0b" font-size="11.5" x="501.8" y="205">0.41</text><text class="lab" fill="#52514e" font-size="12" x="311" y="230.0" text-anchor="end">v2 concepts, no filter · tuned</text><path class="ctx" fill="#b9b7ae" d="M319.0,218.0h167.6a4.0,4.0 0 0 1 4.0,4.0v8.0a4.0,4.0 0 0 1 -4.0,4.0h-167.6z"><title>v2 concepts, no filter · tuned: 0.399 (row 100)</title></path><text class="val" fill="#0b0b0b" font-size="11.5" x="495.6" y="231">0.40</text><text class="lab" fill="#52514e" font-size="12" x="311" y="256.0" text-anchor="end">v1 hypothetical text + filters · base</text><path class="ctx" fill="#b9b7ae" d="M319.0,244.0h143.5a4.0,4.0 0 0 1 4.0,4.0v8.0a4.0,4.0 0 0 1 -4.0,4.0h-143.5z"><title>v1 hypothetical text + filters · base: 0.343 (row 90)</title></path><text class="val" fill="#0b0b0b" font-size="11.5" x="471.5" y="257">0.34</text><text class="lab" fill="#52514e" font-size="12" x="311" y="282.0" text-anchor="end">v1 hypothetical text, no filter · tuned</text><path class="ctx" fill="#b9b7ae" d="M319.0,270.0h133.6a4.0,4.0 0 0 1 4.0,4.0v8.0a4.0,4.0 0 0 1 -4.0,4.0h-133.6z"><title>v1 hypothetical text, no filter · tuned: 0.320 (row 98)</title></path><text class="val" fill="#0b0b0b" font-size="11.5" x="461.6" y="283">0.32</text><text class="lab" fill="#52514e" font-size="12" x="311" y="308.0" text-anchor="end">v1 filters + raw query · base</text><path class="ctx" fill="#b9b7ae" d="M319.0,296.0h127.4a4.0,4.0 0 0 1 4.0,4.0v8.0a4.0,4.0 0 0 1 -4.0,4.0h-127.4z"><title>v1 filters + raw query · base: 0.306 (row 89)</title></path><text class="val" fill="#0b0b0b" font-size="11.5" x="455.4" y="309">0.31</text><text class="lab" fill="#52514e" font-size="12" x="311" y="334.0" text-anchor="end">v2 concepts + filters + keywords · base</text><path class="ctx" fill="#b9b7ae" d="M319.0,322.0h126.8a4.0,4.0 0 0 1 4.0,4.0v8.0a4.0,4.0 0 0 1 -4.0,4.0h-126.8z"><title>v2 concepts + filters + keywords · base: 0.304 (row 94)</title></path><text class="val" fill="#0b0b0b" font-size="11.5" x="454.8" y="335">0.30</text><text class="lab" fill="#52514e" font-size="12" x="311" y="360.0" text-anchor="end">v2 concepts + filters · base</text><path class="ctx" fill="#b9b7ae" d="M319.0,348.0h109.9a4.0,4.0 0 0 1 4.0,4.0v8.0a4.0,4.0 0 0 1 -4.0,4.0h-109.9z"><title>v2 concepts + filters · base: 0.265 (row 92)</title></path><text class="val" fill="#0b0b0b" font-size="11.5" x="437.9" y="361">0.26</text><text class="lab" fill="#52514e" font-size="12" x="311" y="386.0" text-anchor="end">v1 hypothetical text, no filter · base</text><path class="ctx" fill="#b9b7ae" d="M319.0,374.0h96.1a4.0,4.0 0 0 1 4.0,4.0v8.0a4.0,4.0 0 0 1 -4.0,4.0h-96.1z"><title>v1 hypothetical text, no filter · base: 0.233 (row 91)</title></path><text class="val" fill="#0b0b0b" font-size="11.5" x="424.1" y="387">0.23</text><text class="lab" fill="#52514e" font-size="12" x="311" y="412.0" text-anchor="end">Raw query, no rewriter, no filter · base</text><path class="ctx" fill="#b9b7ae" d="M319.0,400.0h78.1a4.0,4.0 0 0 1 4.0,4.0v8.0a4.0,4.0 0 0 1 -4.0,4.0h-78.1z"><title>Raw query, no rewriter, no filter · base: 0.191 (row 88)</title></path><text class="val" fill="#0b0b0b" font-size="11.5" x="406.1" y="413">0.19</text><text class="lab" fill="#52514e" font-size="12" x="311" y="438.0" text-anchor="end">v2 concepts, no filter · base</text><path class="ctx" fill="#b9b7ae" d="M319.0,426.0h58.7a4.0,4.0 0 0 1 4.0,4.0v8.0a4.0,4.0 0 0 1 -4.0,4.0h-58.7z"><title>v2 concepts, no filter · base: 0.146 (row 93)</title></path><text class="val" fill="#0b0b0b" font-size="11.5" x="386.7" y="439">0.15</text></svg>
